Coordinates
version=1
nRows=37
nColumns=38
inDegrees=no

Units are S.I. units (second, meters, Newtons, ...)
If the header above contains a line with 'inDegrees', this indicates whether rotational values are in degrees (yes) or radians (no).

endheader
time	pelvis_tilt	pelvis_list	pelvis_rotation	pelvis_tx	pelvis_ty	pelvis_tz	hip_flexion_r	hip_adduction_r	hip_rotation_r	knee_angle_r	ankle_angle_r	subtalar_angle_r	mtp_angle_r	hip_flexion_l	hip_adduction_l	hip_rotation_l	knee_angle_l	ankle_angle_l	subtalar_angle_l	mtp_angle_l	lumbar_extension	lumbar_bending	lumbar_rotation	arm_flex_r	arm_add_r	arm_rot_r	elbow_flex_r	pro_sup_r	wrist_flex_r	wrist_dev_r	arm_flex_l	arm_add_l	arm_rot_l	elbow_flex_l	pro_sup_l	wrist_flex_l	wrist_dev_l
21.04	2.94754	1.34066	-1.27641	0.675385	-0.187547	0.949805	-0.323436	0.0445561	-0.056644	0.225847	-0.19268	0	0	-0.288225	-0.129027	-0.0800899	0.305469	-0.131093	0	0	-0.23617	0.0968201	-0.0704902	0.071051	-0.441575	0.520236	1.02873	1.5708	0	0	0.0916701	-0.288902	0.628027	0.610676	1.5708	0	0
21.05	2.95231	1.3376	-1.28122	0.675396	-0.187305	0.949899	-0.328811	0.043937	-0.0557284	0.221993	-0.196428	0	0	-0.293002	-0.128697	-0.080691	0.303392	-0.132672	0	0	-0.237839	0.0962701	-0.0725911	0.0768674	-0.43628	0.544028	0.985541	1.5708	0	0	0.0910219	-0.281093	0.631201	0.580194	1.5708	0	0
21.06	2.95414	1.33632	-1.28363	0.675453	-0.18691	0.949861	-0.331771	0.0436322	-0.0542723	0.219623	-0.19745	0	0	-0.295512	-0.128661	-0.0827405	0.302705	-0.132723	0	0	-0.236562	0.0957568	-0.0762654	0.0856664	-0.4317	0.575587	0.942735	1.5708	0	0	0.0861568	-0.272819	0.623811	0.553502	1.5708	0	0
21.07	2.95474	1.3354	-1.28469	0.675533	-0.186573	0.949795	-0.333708	0.0437718	-0.0540381	0.218407	-0.197592	0	0	-0.297205	-0.128912	-0.0843207	0.302626	-0.132348	0	0	-0.234688	0.0951728	-0.0800504	0.0950012	-0.428118	0.610581	0.903259	1.5708	0	0	0.0806505	-0.265863	0.615432	0.531344	1.5708	0	0
21.08	2.95509	1.3345	-1.28556	0.675614	-0.186232	0.949744	-0.335675	0.0439788	-0.0539757	0.216931	-0.197805	0	0	-0.298893	-0.129156	-0.0856791	0.302443	-0.131871	0	0	-0.232594	0.0944648	-0.0831757	0.103607	-0.425144	0.645531	0.867383	1.5708	0	0	0.075192	-0.260072	0.607903	0.51346	1.5708	0	0
21.09	2.95633	1.33369	-1.28721	0.675676	-0.185896	0.949697	-0.337694	0.0439434	-0.0540919	0.21527	-0.197984	0	0	-0.300468	-0.129121	-0.0865002	0.302411	-0.131406	0	0	-0.230408	0.0935807	-0.085712	0.111024	-0.42193	0.677696	0.834503	1.5708	0	0	0.0697053	-0.255015	0.598728	0.499936	1.5708	0	0
21.1	2.95861	1.33518	-1.28944	0.675897	-0.185555	0.949624	-0.337146	0.0434237	-0.0542963	0.214189	-0.197856	0	0	-0.299542	-0.128333	-0.0848517	0.302039	-0.131344	0	0	-0.238082	0.0931717	-0.0652633	0.0877835	-0.425733	0.65415	0.832212	1.5708	0	0	0.0798725	-0.248409	0.604831	0.490867	1.5708	0	0
21.11	2.95859	1.33514	-1.29041	0.67602	-0.185294	0.949607	-0.337695	0.0432684	-0.0535407	0.2136	-0.197804	0	0	-0.300337	-0.128157	-0.0854301	0.301533	-0.131249	0	0	-0.239274	0.0929429	-0.0598339	0.0816685	-0.422479	0.653295	0.814356	1.5708	0	0	0.0804291	-0.246657	0.610482	0.486157	1.5708	0	0
21.12	2.95781	1.33551	-1.29059	0.676148	-0.185035	0.949565	-0.337705	0.0431579	-0.0528373	0.213024	-0.197936	0	0	-0.300533	-0.128071	-0.085955	0.301208	-0.131305	0	0	-0.239079	0.0926949	-0.0569574	0.0799086	-0.419571	0.660639	0.795878	1.5708	0	0	0.0785643	-0.246769	0.613867	0.48668	1.5708	0	0
21.13	2.95636	1.33601	-1.29016	0.676295	-0.18477	0.949511	-0.337428	0.0431527	-0.0522414	0.212674	-0.198087	0	0	-0.300594	-0.12804	-0.08619	0.300854	-0.131318	0	0	-0.238266	0.0926032	-0.054765	0.0790084	-0.416743	0.668281	0.778816	1.5708	0	0	0.0759928	-0.247809	0.616253	0.490817	1.5708	0	0
21.14	2.95487	1.33641	-1.28971	0.676445	-0.184504	0.949466	-0.337184	0.0431802	-0.051709	0.212496	-0.198064	0	0	-0.3008	-0.127972	-0.0861856	0.300523	-0.131176	0	0	-0.237234	0.0926551	-0.0526378	0.0778673	-0.413939	0.673728	0.763702	1.5708	0	0	0.0733473	-0.249268	0.618056	0.497585	1.5708	0	0
21.15	2.95279	1.33614	-1.28859	0.676576	-0.184271	0.949487	-0.337571	0.043518	-0.0510274	0.212141	-0.198316	0	0	-0.301661	-0.128207	-0.0861539	0.300081	-0.130962	0	0	-0.236644	0.0932434	-0.050246	0.0766341	-0.411226	0.677894	0.750284	1.5708	0	0	0.0711605	-0.250982	0.62079	0.506071	1.5708	0	0
21.16	2.95068	1.3352	-1.28718	0.67666	-0.184097	0.949569	-0.338551	0.0440774	-0.0508181	0.211656	-0.198993	0	0	-0.302995	-0.128755	-0.0864452	0.299799	-0.13089	0	0	-0.23666	0.0942388	-0.0475792	0.0747705	-0.408689	0.680418	0.739166	1.5708	0	0	0.0698316	-0.252595	0.623944	0.515284	1.5708	0	0
21.17	2.94897	1.33337	-1.28655	0.676595	-0.184004	0.949484	-0.339661	0.0443049	-0.0518095	0.213688	-0.19626	0	0	-0.304334	-0.12953	-0.089143	0.302376	-0.128201	0	0	-0.227999	0.0937363	-0.0716383	0.106649	-0.399017	0.745509	0.701487	1.5708	0	0	0.0469518	-0.26068	0.601357	0.536401	1.5708	0	0
21.18	2.9473	1.33451	-1.28537	0.676618	-0.183841	0.949451	-0.338257	0.044225	-0.0524817	0.213768	-0.197435	0	0	-0.303459	-0.129266	-0.088329	0.301725	-0.128949	0	0	-0.228822	0.0944821	-0.0702423	0.103616	-0.397543	0.740062	0.696793	1.5708	0	0	0.0450855	-0.263005	0.600743	0.54919	1.5708	0	0
21.19	2.946	1.33593	-1.2844	0.676636	-0.183679	0.949365	-0.336436	0.0440676	-0.0538184	0.21471	-0.197529	0	0	-0.302111	-0.128901	-0.0875367	0.301624	-0.129156	0	0	-0.229091	0.0950035	-0.0688616	0.0997378	-0.39603	0.730913	0.693608	1.5708	0	0	0.0432319	-0.265721	0.600102	0.56305	1.5708	0	0
21.2	2.94521	1.33736	-1.28337	0.676626	-0.183502	0.949241	-0.334198	0.0443064	-0.0567618	0.216781	-0.197008	0	0	-0.300435	-0.128652	-0.0865322	0.302147	-0.129002	0	0	-0.230216	0.0947334	-0.0676914	0.0940463	-0.393235	0.713013	0.691746	1.5708	0	0	0.0405131	-0.270575	0.599205	0.582646	1.5708	0	0
21.21	2.94353	1.33838	-1.28163	0.676633	-0.183438	0.949202	-0.332241	0.0445992	-0.0583248	0.218581	-0.196375	0	0	-0.299098	-0.128668	-0.0856941	0.302603	-0.128696	0	0	-0.231436	0.0952071	-0.0656912	0.0889631	-0.391357	0.697776	0.690878	1.5708	0	0	0.0396692	-0.273117	0.59688	0.598342	1.5708	0	0
21.22	2.94307	1.33954	-1.28073	0.676579	-0.183343	0.949094	-0.330483	0.0443268	-0.0602537	0.220137	-0.195558	0	0	-0.297671	-0.128471	-0.0847941	0.303131	-0.128301	0	0	-0.232387	0.0952272	-0.0639503	0.083587	-0.389549	0.681852	0.69088	1.5708	0	0	0.0385691	-0.275643	0.593492	0.614436	1.5708	0	0
21.23	2.94231	1.34058	-1.2796	0.676544	-0.183282	0.948978	-0.328926	0.0441997	-0.0614511	0.221472	-0.194592	0	0	-0.296394	-0.128373	-0.0840358	0.303535	-0.127826	0	0	-0.233322	0.0952435	-0.0621499	0.0786447	-0.387998	0.666249	0.69132	1.5708	0	0	0.0377317	-0.277798	0.589535	0.629843	1.5708	0	0
21.24	2.94165	1.34153	-1.27866	0.676527	-0.183242	0.948889	-0.327582	0.0441384	-0.0619561	0.222566	-0.19362	0	0	-0.295253	-0.128339	-0.0838223	0.303805	-0.127433	0	0	-0.234343	0.0951745	-0.0604218	0.0743337	-0.386552	0.650917	0.691763	1.5708	0	0	0.037191	-0.279464	0.583945	0.644439	1.5708	0	0
21.25	2.94182	1.34235	-1.27847	0.676515	-0.18319	0.94882	-0.326644	0.0440095	-0.0620464	0.223228	-0.192691	0	0	-0.294365	-0.128281	-0.0843296	0.303938	-0.127182	0	0	-0.235359	0.0948994	-0.0589683	0.0706122	-0.38509	0.636289	0.692129	1.5708	0	0	0.0365705	-0.280659	0.577045	0.658476	1.5708	0	0
21.26	2.94268	1.34305	-1.27875	0.676467	-0.183135	0.948738	-0.326084	0.0438435	-0.0618246	0.223475	-0.191853	0	0	-0.293657	-0.128129	-0.084513	0.304057	-0.12695	0	0	-0.236324	0.0945166	-0.0581054	0.0675999	-0.383689	0.622619	0.692479	1.5708	0	0	0.0360341	-0.281269	0.569686	0.671603	1.5708	0	0
21.27	2.94269	1.34378	-1.27838	0.67645	-0.183141	0.948657	-0.325318	0.0438657	-0.0605379	0.223826	-0.191065	0	0	-0.292871	-0.12811	-0.08458	0.304064	-0.126735	0	0	-0.237149	0.0943362	-0.0572832	0.0654646	-0.382395	0.610211	0.692496	1.5708	0	0	0.0358108	-0.281314	0.56198	0.683712	1.5708	0	0
21.28	2.94089	1.34416	-1.27672	0.676533	-0.183249	0.948644	-0.324576	0.044393	-0.05809	0.224306	-0.190365	0	0	-0.292349	-0.128598	-0.0853648	0.303942	-0.126683	0	0	-0.238423	0.0945298	-0.0561272	0.0644291	-0.381124	0.599081	0.691972	1.5708	0	0	0.0360207	-0.280922	0.554184	0.694714	1.5708	0	0
21.29	2.94098	1.34453	-1.27645	0.676532	-0.183305	0.948647	-0.324297	0.0444942	-0.0569782	0.224255	-0.189808	0	0	-0.291829	-0.128854	-0.0869052	0.303828	-0.126931	0	0	-0.239501	0.0944157	-0.0557535	0.0638319	-0.379935	0.588792	0.691327	1.5708	0	0	0.0364324	-0.280066	0.546665	0.704576	1.5708	0	0
21.3	2.94041	1.34525	-1.27533	0.676502	-0.183299	0.948551	-0.323039	0.0445324	-0.0571649	0.226196	-0.184868	0	0	-0.290168	-0.129273	-0.0882568	0.306118	-0.12463	0	0	-0.241519	0.0942193	-0.0538241	0.0581521	-0.3767	0.561696	0.69441	1.5708	0	0	0.0357194	-0.277468	0.531662	0.71659	1.5708	0	0
21.31	2.94009	1.34566	-1.2746	0.676436	-0.1832	0.94852	-0.323338	0.0446531	-0.0566441	0.224816	-0.185979	0	0	-0.290311	-0.129278	-0.0884072	0.304887	-0.125351	0	0	-0.240907	0.094559	-0.0544859	0.0598698	-0.377202	0.560014	0.69297	1.5708	0	0	0.0374423	-0.276556	0.528959	0.722996	1.5708	0	0
21.32	2.93992	1.34579	-1.27318	0.67626	-0.18329	0.948488	-0.323673	0.0449399	-0.0563048	0.223766	-0.186813	0	0	-0.289922	-0.129508	-0.0874425	0.304635	-0.125735	0	0	-0.241241	0.0950693	-0.0558029	0.06187	-0.377464	0.556716	0.691945	1.5708	0	0	0.0391011	-0.275685	0.524906	0.730073	1.5708	0	0
21.33	2.94027	1.34591	-1.27266	0.676137	-0.183351	0.948468	-0.324017	0.045053	-0.0557104	0.222857	-0.187471	0	0	-0.289654	-0.129585	-0.0869731	0.304475	-0.125985	0	0	-0.241688	0.0953606	-0.0567669	0.06372	-0.377547	0.552696	0.691216	1.5708	0	0	0.0406622	-0.274757	0.520383	0.736972	1.5708	0	0
21.34	2.94122	1.34602	-1.27313	0.676092	-0.183343	0.948454	-0.324538	0.0450127	-0.0548724	0.221842	-0.187947	0	0	-0.289653	-0.129505	-0.0873084	0.304233	-0.12624	0	0	-0.242121	0.095238	-0.0573812	0.0653403	-0.377387	0.54821	0.69061	1.5708	0	0	0.0423652	-0.273702	0.516013	0.743447	1.5708	0	0
21.35	2.94237	1.34595	-1.27392	0.676068	-0.183346	0.948468	-0.325249	0.0449773	-0.0539673	0.220804	-0.188313	0	0	-0.289828	-0.129427	-0.0878613	0.304053	-0.126457	0	0	-0.242727	0.0951532	-0.0578673	0.0668928	-0.377122	0.543273	0.69018	1.5708	0	0	0.044337	-0.272522	0.512128	0.749319	1.5708	0	0
21.36	2.94317	1.34577	-1.2744	0.676039	-0.183385	0.948506	-0.326015	0.0450655	-0.0530469	0.219717	-0.188632	0	0	-0.289973	-0.129441	-0.0882792	0.304003	-0.126689	0	0	-0.243555	0.0952526	-0.0583826	0.0684338	-0.37686	0.538087	0.690078	1.5708	0	0	0.0464564	-0.271412	0.508805	0.754734	1.5708	0	0
21.37	2.94386	1.34556	-1.27473	0.675973	-0.183443	0.948549	-0.326795	0.0451126	-0.0523143	0.218541	-0.189048	0	0	-0.290054	-0.12948	-0.0886602	0.304014	-0.12698	0	0	-0.244416	0.0953553	-0.0588268	0.0697294	-0.376627	0.532396	0.690189	1.5708	0	0	0.0487229	-0.27037	0.506354	0.759823	1.5708	0	0
21.38	2.94489	1.34551	-1.27538	0.675879	-0.183503	0.948576	-0.327427	0.0447432	-0.051916	0.217289	-0.189596	0	0	-0.289887	-0.129415	-0.0891894	0.304085	-0.127349	0	0	-0.245228	0.0953104	-0.0591266	0.0706146	-0.376453	0.526118	0.690754	1.5708	0	0	0.0509461	-0.269566	0.503796	0.764939	1.5708	0	0
21.39	2.94563	1.34556	-1.2759	0.675827	-0.183546	0.948594	-0.328005	0.0443208	-0.0512614	0.215858	-0.190371	0	0	-0.28956	-0.12929	-0.0893096	0.304355	-0.127724	0	0	-0.245992	0.0952729	-0.0589222	0.0707388	-0.375991	0.51856	0.691792	1.5708	0	0	0.0531047	-0.268408	0.499969	0.770032	1.5708	0	0
21.4	2.94575	1.34566	-1.27593	0.675814	-0.18356	0.948618	-0.328398	0.0444902	-0.0505481	0.214687	-0.191028	0	0	-0.28923	-0.12921	-0.0890829	0.304649	-0.127967	0	0	-0.246623	0.0953555	-0.0590096	0.0708239	-0.375393	0.510701	0.69296	1.5708	0	0	0.0550236	-0.267379	0.496745	0.775008	1.5708	0	0
